<?xml version="1.0" standalone="no"?>
<!DOCTYPE svg PUBLIC "-//W3C//DTD SVG 20010904//EN"
 "http://www.w3.org/TR/2001/REC-SVG-20010904/DTD/svg10.dtd">
<svg version="1.0" xmlns="http://www.w3.org/2000/svg"
 width="200.000000pt" height="200.000000pt" viewBox="0 0 200.000000 200.000000"
 preserveAspectRatio="xMidYMid meet">

<g transform="translate(0.000000,200.000000) scale(0.100000,-0.100000)"
fill="#000000" stroke="none">
<path d="M104 1073 c4 -10 21 -58 38 -106 30 -87 31 -88 61 -85 29 3 33 8 63
93 18 50 33 96 33 103 1 7 -11 12 -28 12 -26 0 -29 -4 -46 -65 -9 -36 -20 -63
-24 -60 -3 4 -13 32 -22 63 -14 53 -18 57 -49 60 -28 3 -32 1 -26 -15z"/>
<path d="M350 985 l0 -105 25 0 25 0 0 105 0 105 -25 0 -25 0 0 -105z"/>
<path d="M494 1056 c-38 -38 -43 -70 -19 -116 20 -39 53 -60 92 -60 64 0 112
39 73 60 -14 8 -26 7 -41 0 -30 -17 -68 -4 -75 24 -14 55 28 91 76 66 18 -10
25 -9 39 5 15 15 14 18 -8 36 -14 12 -38 19 -63 19 -32 0 -47 -7 -74 -34z"/>
<path d="M720 985 l0 -105 25 0 c23 0 25 4 25 40 l0 40 40 0 40 0 0 -40 c0
-38 2 -40 30 -40 l30 0 0 105 0 105 -29 0 c-27 0 -30 -3 -33 -37 -3 -36 -5
-38 -38 -38 -33 0 -35 2 -38 38 -3 32 -7 37 -28 37 -24 0 -24 0 -24 -105z"/>
<path d="M1015 1078 c-10 -26 -65 -192 -65 -195 0 -2 13 -3 29 -3 21 0 32 6
36 20 4 14 15 20 35 20 20 0 31 -6 35 -20 4 -14 15 -20 36 -20 25 0 29 3 24
19 -55 175 -61 186 -93 189 -20 2 -34 -2 -37 -10z m49 -90 c5 -24 3 -28 -14
-28 -23 0 -23 0 -10 36 12 31 15 30 24 -8z"/>
<path d="M1200 985 l0 -105 30 0 c27 0 30 3 30 30 0 20 5 30 15 30 8 0 21 -13
30 -30 12 -23 22 -30 45 -30 35 0 35 1 14 42 -13 25 -14 36 -5 50 17 28 13 76
-9 98 -16 16 -33 20 -85 20 l-65 0 0 -105z m108 33 c-2 -15 -10 -23 -23 -23
-13 0 -21 8 -23 23 -3 18 1 22 23 22 22 0 26 -4 23 -22z"/>
<path d="M1481 1067 c-5 -13 -20 -60 -34 -105 l-25 -82 30 0 c21 0 31 6 35 20
4 14 14 20 33 20 20 0 31 -6 35 -20 5 -14 15 -20 37 -20 20 0 29 4 26 13 -3 6
-18 54 -33 105 l-28 92 -34 0 c-26 0 -35 -5 -42 -23z m53 -79 c5 -23 3 -28
-13 -28 -14 0 -19 5 -16 15 14 42 16 48 19 44 2 -2 6 -16 10 -31z"/>
<path d="M1670 985 l0 -105 29 0 c26 0 30 4 33 32 4 43 19 44 46 3 18 -29 28
-35 57 -35 l36 0 -41 55 c-22 30 -40 57 -40 60 0 4 16 26 36 48 l35 42 -31 3
c-26 3 -38 -3 -65 -35 l-34 -38 -1 38 c0 34 -2 37 -30 37 l-30 0 0 -105z"/>
</g>
</svg>
